<svg width="24" height="25" viewBox="0 0 24 25" fill="none" xmlns="http://www.w3.org/2000/svg">
<g id="Icon">
<path id="Vector" d="M17.608 13.2366L17.279 13.0176C17.039 12.8579 16.8423 12.6413 16.7064 12.387C16.5705 12.1328 16.4996 11.8489 16.5 11.5606V9.89062C16.5 8.79663 16.5 7.55862 15.937 6.55463C15.261 5.34962 13.972 4.76562 12 4.76562C10.028 4.76562 8.74 5.35063 8.063 6.55263C7.5 7.55763 7.5 8.79662 7.5 9.88962V11.5616C7.49985 11.8495 7.42856 12.1328 7.29248 12.3865C7.1564 12.6402 6.95975 12.8563 6.72 13.0156L6.393 13.2346C5.80994 13.6223 5.33192 14.1482 5.00161 14.7656C4.67129 15.3829 4.49897 16.0725 4.5 16.7726V17.7656H10C9.97842 18.0337 10.0153 18.3034 10.1082 18.5558C10.2011 18.8082 10.3477 19.0375 10.5379 19.2277C10.7281 19.4179 10.9574 19.5645 11.2098 19.6574C11.4623 19.7503 11.7319 19.7872 12 19.7656C12.2681 19.7872 12.5377 19.7503 12.7902 19.6574C13.0426 19.5645 13.2719 19.4179 13.4621 19.2277C13.6523 19.0375 13.7989 18.8082 13.8918 18.5558C13.9847 18.3034 14.0216 18.0337 14 17.7656H19.5V16.7726C19.5007 16.0729 19.3284 15.3839 18.9983 14.7669C18.6681 14.15 18.1905 13.6243 17.608 13.2366ZM6.047 16.2656C6.11431 15.9051 6.25325 15.5617 6.45558 15.2558C6.65792 14.9499 6.91955 14.6877 7.225 14.4846L7.553 14.2656C7.9985 13.9692 8.36375 13.5672 8.61622 13.0954C8.86869 12.6236 9.00053 12.0967 9 11.5616V9.88762C9 8.93462 9 7.94962 9.37 7.28762C9.618 6.84962 10.16 6.26562 12 6.26562C13.841 6.26562 14.383 6.84962 14.63 7.28862C15.001 7.95062 15.001 8.93463 15 9.88863V11.5626C14.9996 12.0975 15.1316 12.6243 15.384 13.0959C15.6365 13.5675 16.0017 13.9693 16.447 14.2656L16.776 14.4846C17.0812 14.6878 17.3426 14.9501 17.5448 15.256C17.747 15.5619 17.8858 15.9052 17.953 16.2656H6.047Z" fill="#1E1919"/>
</g>
</svg>
