<svg width="32" height="33" viewBox="0 0 32 33" fill="none" xmlns="http://www.w3.org/2000/svg">
<g id="Frame">
<g id="Group">
<path id="Vector" d="M26.5 2.5H5.5C4.67157 2.5 4 3.17157 4 4V31C4 31.8284 4.67157 32.5 5.5 32.5H26.5C27.3284 32.5 28 31.8284 28 31V4C28 3.17157 27.3284 2.5 26.5 2.5Z" fill="#DBDFE2"/>
<path id="Vector_2" d="M26.5 1.5H5.5C4.67157 1.5 4 2.17157 4 3V30C4 30.8284 4.67157 31.5 5.5 31.5H26.5C27.3284 31.5 28 30.8284 28 30V3C28 2.17157 27.3284 1.5 26.5 1.5Z" fill="#F7F9FA"/>
</g>
</g>
</svg>
