<svg width="32" height="32" viewBox="0 0 32 32" fill="none" xmlns="http://www.w3.org/2000/svg">
<g id="Icon">
<path id="Vector" d="M15.6667 5.33331C8.71337 5.33331 5.33337 8.71331 5.33337 15.6666C5.33337 22.62 8.71337 26 15.6667 26C22.62 26 26 22.62 26 15.6666C26 8.71331 22.62 5.33331 15.6667 5.33331ZM15.6667 24C9.90404 24 7.33337 21.4306 7.33337 15.6666C7.33337 9.90398 9.90404 7.33331 15.6667 7.33331C21.4307 7.33331 24 9.90398 24 15.6666C24 21.4306 21.4307 24 15.6667 24Z" fill="#1E1919"/>
<path id="Vector_2" d="M15.6667 19.3333C15.4689 19.3333 15.2755 19.392 15.1111 19.5019C14.9466 19.6118 14.8185 19.7679 14.7428 19.9507C14.6671 20.1334 14.6473 20.3345 14.6859 20.5284C14.7245 20.7224 14.8197 20.9006 14.9596 21.0405C15.0994 21.1803 15.2776 21.2755 15.4716 21.3141C15.6656 21.3527 15.8666 21.3329 16.0493 21.2572C16.2321 21.1815 16.3883 21.0534 16.4981 20.8889C16.608 20.7245 16.6667 20.5311 16.6667 20.3333C16.6744 20.2 16.6539 20.0665 16.6063 19.9417C16.5588 19.8168 16.4854 19.7035 16.391 19.609C16.2965 19.5146 16.1832 19.4412 16.0583 19.3937C15.9335 19.3462 15.8 19.3256 15.6667 19.3333ZM15.676 10H15.6667C14.693 10.0035 13.7604 10.3928 13.0731 11.0826C12.3859 11.7723 12 12.7063 12 13.68V14H14V13.68C13.9986 13.2363 14.1733 12.8102 14.4858 12.4952C14.7983 12.1802 15.223 12.0021 15.6667 12C16.8213 12 17.3333 12.5147 17.3333 13.6667C17.3333 14.8493 16.7427 15.0987 16.5493 15.1813C16.0024 15.3996 15.5321 15.7743 15.1972 16.2586C14.8623 16.7429 14.6777 17.3153 14.6667 17.904V18.1253C15.3227 17.9566 16.0107 17.9566 16.6667 18.1253V17.904C16.6787 17.7087 16.7478 17.5212 16.8654 17.3648C16.9829 17.2084 17.1438 17.0899 17.328 17.024C17.9693 16.7417 18.507 16.2669 18.8663 15.6653C19.2256 15.0637 19.3888 14.3652 19.3333 13.6667C19.3735 13.1758 19.3065 12.682 19.1371 12.2196C18.9676 11.7571 18.6997 11.337 18.3519 10.9883C18.0041 10.6396 17.5846 10.3706 17.1226 10.1999C16.6606 10.0293 16.167 9.96109 15.676 10Z" fill="#1E1919"/>
</g>
</svg>
