<svg width="12" height="13" viewBox="0 0 12 13" fill="none" xmlns="http://www.w3.org/2000/svg">
<g id="Icon">
<path id="Vector" fill-rule="evenodd" clip-rule="evenodd" d="M5.588 5.275C5.71265 5.20087 5.85498 5.16174 6 5.16174C6.14502 5.16174 6.28736 5.20087 6.412 5.275L11.588 8.725C11.815 8.877 11.814 9.125 11.588 9.275L6.412 12.725C6.28736 12.7991 6.14502 12.8383 6 12.8383C5.85498 12.8383 5.71265 12.7991 5.588 12.725L0.412002 9.275C0.185002 9.123 0.186002 8.875 0.412002 8.725L5.588 5.275Z" fill="#B6D2EA"/>
<path id="Vector_2" fill-rule="evenodd" clip-rule="evenodd" d="M5.588 0.275001C5.71265 0.20087 5.85498 0.161743 6 0.161743C6.14502 0.161743 6.28736 0.20087 6.412 0.275001L11.588 3.725C11.815 3.877 11.814 4.125 11.588 4.275L6.412 7.725C6.28736 7.79913 6.14502 7.83826 6 7.83826C5.85498 7.83826 5.71265 7.79913 5.588 7.725L0.412002 4.275C0.185002 4.123 0.186002 3.875 0.412002 3.725L5.588 0.275001Z" fill="#0061FF"/>
</g>
</svg>
